<svg xmlns="http://www.w3.org/2000/svg" viewBox="0 0 340 48" fill="none">
  <defs>
    <linearGradient id="tg" x1="0%" y1="0%" x2="100%" y2="0%">
      <stop offset="0%" stop-color="#00ff88"/>
      <stop offset="45%" stop-color="#00ddff"/>
      <stop offset="100%" stop-color="#3b82f6"/>
    </linearGradient>
    <linearGradient id="ibg" x1="0%" y1="0%" x2="100%" y2="100%">
      <stop offset="0%" stop-color="#0d1117"/>
      <stop offset="100%" stop-color="#07090e"/>
    </linearGradient>
    <radialGradient id="icg" cx="50%" cy="48%" r="30%">
      <stop offset="0%" stop-color="#00ff88"/>
      <stop offset="100%" stop-color="#00ddff" stop-opacity="0"/>
    </radialGradient>
  </defs>

  <!-- Icon (compact shield) -->
  <rect x="0" y="4" width="40" height="40" rx="9" fill="url(#ibg)" stroke="url(#tg)" stroke-width="1.2" opacity="0.7"/>
  <path d="M20 10 C20 10,20.8 10,21 10.1
    L32 14.5 C32.3 14.6,32.5 15,32.5 15.3
    L32.5 24 C32.5 27.5,30 30.5,27 32.5
    C24.5 34,21 35.5,20.2 35.8
    C20 35.9,19.8 35.8,19.8 35.8
    C19 35.5,15.5 34,13 32.5
    C10 30.5,7.5 27.5,7.5 24
    L7.5 15.3 C7.5 15,7.7 14.6,8 14.5
    L19 10.1 C19.2 10,20 10,20 10 Z"
    fill="url(#ibg)" stroke="url(#tg)" stroke-width="0.8"/>
  <circle cx="20" cy="22" r="4.5" fill="none" stroke="url(#tg)" stroke-width="0.8" opacity="0.5"/>
  <circle cx="20" cy="22" r="2.2" fill="url(#icg)" opacity="0.4"/>
  <circle cx="20" cy="22" r="1.6" fill="url(#tg)"/>
  <circle cx="20" cy="22" r="0.7" fill="#fff" opacity="0.9"/>
  <line x1="20" y1="22" x2="24.5" y2="20" stroke="#00ff88" stroke-width="0.7" opacity="0.5" stroke-linecap="round"/>
  <circle cx="20" cy="10" r="1" fill="#00ff88" opacity="0.8"/>

  <!-- "IntelWatch" text -->
  <text x="52" y="23" font-family="Inter, system-ui, sans-serif" font-weight="700" font-size="22" fill="url(#tg)" letter-spacing="-0.02em">
    IntelWatch
  </text>

  <!-- "ETIP" subtitle -->
  <text x="52" y="39" font-family="Inter, system-ui, sans-serif" font-weight="400" font-size="9.5" fill="#64748b" letter-spacing="0.18em">
    ENTERPRISE THREAT INTELLIGENCE PLATFORM
  </text>
</svg>
